<?xml version="1.0" encoding="utf-8"?>
<!DOCTYPE svg PUBLIC "-//W3C//DTD SVG 1.1//EN" "http://www.w3.org/Graphics/SVG/1.1/DTD/svg11.dtd">
<svg version="1.1" id="Layer_1" xmlns="http://www.w3.org/2000/svg" xmlns:xlink="http://www.w3.org/1999/xlink" x="0px" y="0px"
	 width="55px" height="55px" viewBox="0 0 55 55" style="enable-background:new 0 0 55 55;" xml:space="preserve">
<g>
	<path d="M32,42c0,1.22,0,5,0,5s-3.378,0-4.606,0H14.07C12.84,47,10,47,10,47s0-2.972,0-4.192c0-0.538,0.019-1.104,0.053-1.618
		c0.036-0.513,0.107-1.088,0.215-1.682c0.105-0.595,0.241-1.155,0.403-1.664c0.162-0.508,0.381-1.009,0.655-1.491
		c0.273-0.483,0.589-0.897,0.945-1.238c0.355-0.341,0.789-0.612,1.303-0.816c0.514-0.202,1.08-0.305,1.7-0.305
		c0.091,0,0.306,0.108,0.641,0.326c0.335,0.22,0.713,0.463,1.135,0.731c0.423,0.271,0.971,0.514,1.647,0.732
		c0.676,0.22,1.354,0.328,2.034,0.328c0.682,0,1.358-0.108,2.036-0.328c0.675-0.219,1.224-0.462,1.645-0.732
		c0.422-0.269,0.801-0.512,1.136-0.731c0.336-0.218,0.548-0.327,0.641-0.327c0.62,0,1.187,0.102,1.7,0.305
		c0.514,0.204,0.947,0.475,1.303,0.815s0.672,0.753,0.945,1.235c0.274,0.482,0.494,0.978,0.655,1.486
		c0.163,0.508,0.348,0.225,0.454,0.819c0.106,0.594,0.718,1.316,0.754,1.829C32.035,40.996,32,41.461,32,42z M24.869,24.009
		c1.145,1.144,1.716,2.522,1.716,4.139c0,1.615-0.571,2.996-1.716,4.139C23.727,33.43,22.348,34,20.731,34
		c-1.615,0-2.995-0.57-4.139-1.714c-1.144-1.143-1.715-2.523-1.715-4.139c0-1.616,0.571-2.995,1.715-4.139
		c1.144-1.143,2.523-1.715,4.139-1.715C22.348,22.294,23.727,22.866,24.869,24.009z"/>
</g>
<g>
	<path d="M46.129,16.75c0,0.414-0.145,0.766-0.434,1.055l-7.629,7.641c-0.305,0.289-0.66,0.434-1.066,0.434
		c-0.414,0-0.766-0.145-1.055-0.434l-7.629-7.641c-0.297-0.281-0.445-0.633-0.445-1.055c0-0.414,0.148-0.77,0.445-1.066l0.867-0.879
		c0.305-0.289,0.66-0.434,1.066-0.434c0.414,0,0.891,0.145,1.18,0.434L35,18.25V10c0-0.406,0.023-0.508,0.32-0.805S35.844,9,36.25,9
		h1.5c0.406,0,0.633-0.102,0.93,0.195S39,9.594,39,10v8.25l3.57-3.445c0.289-0.289,0.703-0.434,1.117-0.434
		c0.406,0,0.793,0.145,1.098,0.434l0.895,0.879C45.969,15.988,46.129,16.344,46.129,16.75z"/>
</g>
</svg>
