<?xml version="1.0" encoding="utf-8"?>
<!DOCTYPE svg PUBLIC "-//W3C//DTD SVG 1.1//EN" "http://www.w3.org/Graphics/SVG/1.1/DTD/svg11.dtd">
<svg version="1.1" id="Layer_1" xmlns="http://www.w3.org/2000/svg" xmlns:xlink="http://www.w3.org/1999/xlink" x="0px" y="0px"
	 width="100px" height="100px" viewBox="0 0 100 100" style="enable-background:new 0 0 100 100;" xml:space="preserve">
<path style="fill:#92C131;" d="M100,94c0,3.313-2.687,6-6,6H6c-3.313,0-6-2.687-6-6V6c0-3.313,2.687-6,6-6h88c3.313,0,6,2.687,6,6
	V94z"/>
<g>
	<path style="fill:#FFFFFF;" d="M36.164,50c-4.219,0.131-7.67,1.797-10.352,5h-5.234C18.442,55,13,55,13,55s0-4.18,0-6.211
		C13,39.597,14.614,35,17.844,35c0.156,0,0.723,0.273,1.699,0.82s2.246,1.101,3.809,1.66c1.562,0.561,3.111,0.84,4.648,0.84
		c1.744,0,3.477-0.299,5.195-0.898C33.064,38.386,33,39.245,33,40C33,43.62,34.055,46.953,36.164,50z M35.07,17.93
		C37.023,19.883,38,22.24,38,25c0,2.761-0.977,5.117-2.93,7.07S30.76,35,28,35c-2.761,0-5.117-0.977-7.07-2.93S18,27.761,18,25
		c0-2.76,0.977-5.117,2.93-7.07S25.239,15,28,15C30.76,15,33.117,15.977,35.07,17.93z M78,74.883C78,78.008,78,85,78,85
		s-7.279,0-10.43,0H33.43C30.278,85,23,85,23,85s0-6.992,0-10.117c0-1.38,0.045-2.728,0.137-4.043
		c0.091-1.314,0.273-2.734,0.547-4.258s0.618-2.936,1.035-4.238c0.416-1.302,0.977-2.571,1.68-3.809
		c0.703-1.236,1.51-2.291,2.422-3.164c0.911-0.872,2.024-1.568,3.34-2.09c1.314-0.521,2.767-0.781,4.355-0.781
		c0.26,0,0.82,0.28,1.68,0.84c0.859,0.561,1.81,1.186,2.852,1.875c1.041,0.69,2.435,1.315,4.18,1.875
		c1.744,0.561,3.502,0.84,5.273,0.84c1.771,0,3.528-0.279,5.273-0.84c1.744-0.56,3.138-1.185,4.18-1.875
		c1.041-0.689,1.992-1.314,2.852-1.875c0.859-0.56,1.419-0.84,1.68-0.84c1.588,0,3.04,0.261,4.355,0.781
		c1.314,0.521,2.428,1.218,3.34,2.09c0.911,0.873,1.719,1.928,2.422,3.164c0.703,1.237,1.263,2.507,1.68,3.809
		c0.416,1.303,0.762,2.715,1.035,4.238s0.455,2.943,0.547,4.258C77.954,72.155,78,73.503,78,74.883z M61.105,29.395
		C64.035,32.324,65.5,35.859,65.5,40s-1.465,7.676-4.395,10.605S54.641,55,50.5,55s-7.676-1.465-10.605-4.395S35.5,44.141,35.5,40
		s1.465-7.676,4.395-10.605S46.359,25,50.5,25S58.176,26.465,61.105,29.395z M80.07,17.93C82.023,19.883,83,22.24,83,25
		c0,2.761-0.977,5.117-2.93,7.07S75.76,35,73,35c-2.761,0-5.117-0.977-7.07-2.93S63,27.761,63,25c0-2.76,0.977-5.117,2.93-7.07
		S70.239,15,73,15C75.76,15,78.117,15.977,80.07,17.93z M88,48.789C88,50.82,88,55,88,55s-5.443,0-7.578,0h-5.234
		c-2.683-3.203-6.133-4.869-10.352-5C66.945,46.953,68,43.62,68,40c0-0.755-0.065-1.614-0.195-2.578
		c1.719,0.6,3.45,0.898,5.195,0.898c1.536,0,3.086-0.279,4.648-0.84c1.562-0.56,2.832-1.113,3.809-1.66S83,35,83.156,35
		C86.385,35,88,39.597,88,48.789z"/>
</g>
</svg>
