<?xml version="1.0" encoding="utf-8"?>
<!DOCTYPE svg PUBLIC "-//W3C//DTD SVG 1.1//EN" "http://www.w3.org/Graphics/SVG/1.1/DTD/svg11.dtd">
<svg version="1.1" id="Layer_1" xmlns="http://www.w3.org/2000/svg" xmlns:xlink="http://www.w3.org/1999/xlink" x="0px" y="0px"
	 width="55px" height="55px" viewBox="0 0 55 55" style="enable-background:new 0 0 55 55;" xml:space="preserve">
<g>
	<path d="M32,42c0,1.22,0,5,0,5s-3.378,0-4.606,0H14.07C12.84,47,10,47,10,47s0-2.972,0-4.192c0-0.538,0.019-1.104,0.053-1.618
		c0.036-0.513,0.107-1.088,0.215-1.682c0.105-0.595,0.241-1.155,0.403-1.664c0.162-0.508,0.381-1.009,0.655-1.491
		c0.273-0.483,0.589-0.897,0.945-1.238c0.355-0.341,0.789-0.612,1.303-0.816c0.514-0.202,1.08-0.305,1.7-0.305
		c0.091,0,0.306,0.108,0.641,0.326c0.335,0.22,0.713,0.463,1.135,0.731c0.423,0.271,0.971,0.514,1.647,0.732
		c0.676,0.22,1.354,0.328,2.034,0.328c0.682,0,1.358-0.108,2.036-0.328c0.675-0.219,1.224-0.462,1.645-0.732
		c0.422-0.269,0.801-0.512,1.136-0.731c0.336-0.218,0.548-0.327,0.641-0.327c0.62,0,1.187,0.102,1.7,0.305
		c0.514,0.204,0.947,0.475,1.303,0.815s0.672,0.753,0.945,1.235c0.274,0.482,0.494,0.978,0.655,1.486
		c0.163,0.508,0.348,0.225,0.454,0.819c0.106,0.594,0.718,1.316,0.754,1.829C32.035,40.996,32,41.461,32,42z M24.869,24.009
		c1.145,1.144,1.716,2.522,1.716,4.139c0,1.615-0.571,2.996-1.716,4.139C23.727,33.43,22.348,34,20.731,34
		c-1.615,0-2.995-0.57-4.139-1.714c-1.144-1.143-1.715-2.523-1.715-4.139c0-1.616,0.571-2.995,1.715-4.139
		c1.144-1.143,2.523-1.715,4.139-1.715C22.348,22.294,23.727,22.866,24.869,24.009z"/>
</g>
<g>
	<path d="M46,16.223v2.602c0,0.094-0.031,0.184-0.094,0.27s-0.141,0.137-0.234,0.152l-2.168,0.328
		c-0.148,0.422-0.301,0.777-0.457,1.066c0.273,0.391,0.691,0.93,1.254,1.617c0.078,0.094,0.117,0.191,0.117,0.293
		s-0.035,0.191-0.105,0.27c-0.211,0.289-0.598,0.711-1.16,1.266s-0.93,0.832-1.102,0.832c-0.094,0-0.195-0.035-0.305-0.105
		l-1.617-1.266c-0.344,0.18-0.699,0.328-1.066,0.445c-0.125,1.062-0.238,1.789-0.34,2.18c-0.055,0.219-0.195,0.328-0.422,0.328
		h-2.602c-0.109,0-0.205-0.033-0.287-0.1s-0.127-0.15-0.135-0.252l-0.328-2.156c-0.383-0.125-0.734-0.27-1.055-0.434l-1.652,1.254
		c-0.078,0.07-0.176,0.105-0.293,0.105c-0.109,0-0.207-0.043-0.293-0.129c-0.984-0.891-1.629-1.547-1.934-1.969
		c-0.055-0.078-0.082-0.168-0.082-0.27c0-0.094,0.031-0.184,0.094-0.27c0.117-0.164,0.316-0.424,0.598-0.779
		s0.492-0.631,0.633-0.826c-0.211-0.391-0.371-0.777-0.48-1.16l-2.145-0.316c-0.102-0.016-0.184-0.064-0.246-0.146
		S28,18.879,28,18.777v-2.602c0-0.094,0.031-0.184,0.094-0.27s0.137-0.137,0.223-0.152l2.18-0.328
		c0.109-0.359,0.262-0.719,0.457-1.078c-0.312-0.445-0.73-0.984-1.254-1.617c-0.078-0.094-0.117-0.188-0.117-0.281
		c0-0.078,0.035-0.168,0.105-0.27c0.203-0.281,0.588-0.701,1.154-1.26s0.936-0.838,1.107-0.838c0.102,0,0.203,0.039,0.305,0.117
		l1.617,1.254c0.344-0.18,0.699-0.328,1.066-0.445c0.125-1.062,0.238-1.789,0.34-2.18C35.332,8.609,35.473,8.5,35.699,8.5h2.602
		c0.109,0,0.205,0.033,0.287,0.1s0.127,0.15,0.135,0.252l0.328,2.156c0.383,0.125,0.734,0.27,1.055,0.434l1.664-1.254
		c0.07-0.07,0.164-0.105,0.281-0.105c0.102,0,0.199,0.039,0.293,0.117c1.008,0.93,1.652,1.594,1.934,1.992
		c0.055,0.062,0.082,0.148,0.082,0.258c0,0.094-0.031,0.184-0.094,0.27c-0.117,0.164-0.316,0.424-0.598,0.779
		s-0.492,0.631-0.633,0.826c0.203,0.391,0.363,0.773,0.48,1.148l2.145,0.328c0.102,0.016,0.184,0.064,0.246,0.146
		S46,16.121,46,16.223z M39.121,19.621C39.707,19.035,40,18.328,40,17.5s-0.293-1.535-0.879-2.121S37.828,14.5,37,14.5
		s-1.535,0.293-2.121,0.879S34,16.672,34,17.5s0.293,1.535,0.879,2.121S36.172,20.5,37,20.5S38.535,20.207,39.121,19.621z"/>
</g>
</svg>
